<mxfile host="Electron" modified="2024-04-14T00:13:46.707Z" agent="Mozilla/5.0 (Windows NT 10.0; Win64; x64) AppleWebKit/537.36 (KHTML, like Gecko) draw.io/24.2.5 Chrome/120.0.6099.109 Electron/28.1.0 Safari/537.36" etag="2-h_scm2TAoN-ZGUY-hD" version="24.2.5" type="device">
  <diagram name="Página-1" id="LO5OeuRvCSX3KBJvfI2S">
    <mxGraphModel dx="1050" dy="621" grid="1" gridSize="10" guides="1" tooltips="1" connect="1" arrows="1" fold="1" page="1" pageScale="1" pageWidth="827" pageHeight="1169" math="0" shadow="0">
      <root>
        <mxCell id="0" />
        <mxCell id="1" parent="0" />
        <mxCell id="u4iDb1JLMoceK4KscSdg-1" value="&lt;font style=&quot;font-size: 24px;&quot;&gt;Confirmar Ação?&lt;/font&gt;&lt;div&gt;&lt;font size=&quot;3&quot;&gt;[SIM] [NÃO]&lt;/font&gt;&lt;/div&gt;" style="whiteSpace=wrap;html=1;aspect=fixed;" vertex="1" parent="1">
          <mxGeometry x="300" y="170" width="240" height="240" as="geometry" />
        </mxCell>
      </root>
    </mxGraphModel>
  </diagram>
</mxfile>
